<svg width="1027" height="177" viewBox="0 0 1027 177" fill="none" xmlns="http://www.w3.org/2000/svg">
<g clip-path="url(#clip0_894_49551)">
<path fill-rule="evenodd" clip-rule="evenodd" d="M403.007 176.584H406.126V150.036H402.979L403.007 176.584ZM390.844 177L391.695 176.958L392.484 176.861L393.259 176.702L393.956 176.466L394.654 176.175L395.289 175.821L395.862 175.383L396.378 174.912L396.853 174.385L397.264 173.795L397.62 173.101L397.92 172.408L398.178 171.638L398.331 170.833L398.45 169.973L398.492 169.043V162.258H390.774V165.033H395.485V169.043V169.653L395.429 170.209L395.31 170.736L395.171 171.208L394.989 171.659L394.773 172.075L394.515 172.449L394.243 172.783L393.922 173.059L393.566 173.309L393.189 173.532L392.777 173.705L392.344 173.844L391.884 173.941L391.395 174.003H390.879H390.383L389.909 173.941L389.455 173.844L389.016 173.705L388.625 173.532L388.248 173.309L387.913 173.039L387.593 172.741L387.32 172.387L387.062 172.012L386.86 171.582L386.685 171.11L386.525 170.597L386.427 170.028L386.371 169.438V168.787V157.805V157.16L386.427 156.549L386.525 155.974L386.644 155.467L386.804 154.996L387.02 154.558L387.237 154.184L387.516 153.83L387.809 153.539L388.129 153.282L388.506 153.067L388.876 152.886L389.295 152.755L389.748 152.651L390.223 152.596H390.718H391.214L391.688 152.651L392.121 152.734L392.54 152.872L392.938 153.025L393.294 153.226L393.628 153.476L393.922 153.754L394.201 154.066L394.438 154.44L394.654 154.836L394.836 155.287L394.989 155.759L395.108 156.293L395.192 156.862L395.227 157.472H398.317L398.255 156.549L398.115 155.682L397.941 154.857L397.703 154.107L397.383 153.414L397.027 152.769L396.615 152.193L396.162 151.665L395.645 151.194L395.073 150.778L394.459 150.445L393.803 150.154L393.105 149.932L392.358 149.779L391.563 149.682L390.732 149.64L389.881 149.682L389.092 149.779L388.318 149.932L387.62 150.167L386.972 150.465L386.337 150.819L385.785 151.229L385.269 151.721L384.794 152.255L384.396 152.866L384.041 153.56L383.761 154.253L383.531 155.058L383.371 155.904L383.273 156.806L383.231 157.77V168.821L383.273 169.785L383.371 170.694L383.545 171.541L383.782 172.324L384.082 173.018L384.459 173.712L384.871 174.322L385.346 174.891L385.883 175.363L386.476 175.8L387.111 176.154L387.809 176.466L388.506 176.702L389.274 176.861L390.09 176.958L390.844 177ZM375.157 176.584H378.283V150.036H375.157V176.584ZM362.736 173.636V150.049H359.61V176.597H372.073V173.636H362.736ZM343.895 152.949H347.301H347.852L348.369 153.004L348.863 153.122L349.317 153.261L349.736 153.442L350.106 153.678L350.462 153.948L350.762 154.267L351.041 154.6L351.278 154.996L351.494 155.425L351.648 155.897L351.788 156.41L351.871 156.959L351.927 157.548V158.18V158.825L351.871 159.415L351.774 159.99L351.648 160.517L351.473 161.01L351.278 161.44L351.041 161.856L350.762 162.231L350.448 162.543L350.106 162.841L349.715 163.077L349.296 163.272L348.843 163.431L348.348 163.528L347.817 163.604H347.259H343.881L343.895 152.949ZM352.464 176.584H356.003L349.813 166.282L350.427 166.081L350.999 165.831L351.55 165.533L352.067 165.2L352.541 164.825L352.974 164.409L353.372 163.958L353.728 163.452L354.049 162.918L354.342 162.349L354.579 161.718L354.774 161.072L354.935 160.379L355.033 159.685L355.116 158.915V158.11V157.188L355.019 156.3L354.858 155.474L354.642 154.704L354.363 153.976L354.007 153.331L353.588 152.72L353.134 152.172L352.604 151.7L352.011 151.264L351.376 150.91L350.678 150.597L349.924 150.383L349.115 150.202L348.242 150.105L347.336 150.063H340.811V176.611H343.93V166.574H346.645L352.464 176.584ZM332.046 176.584H335.173V150.036H332.046V176.584ZM317.888 173.677L327.993 152.172V150.043H314.629V152.956H324.161L314.092 174.35V176.59H328.181V173.684L317.888 173.677ZM301.329 167.933L303.506 158.915L303.806 157.528L304.078 156.14L304.455 153.921H304.574L304.734 154.885L304.951 156.14L305.23 157.528L305.523 158.915L307.7 167.933H301.329ZM309.793 176.584H313.08L306.214 150.036H302.815L295.949 176.584H299.236L300.631 170.826H308.384L309.793 176.584ZM285.07 176.584H288.559L295.244 150.036H291.922L288.343 165.63L286.877 172.567H286.738L285.272 165.63L281.657 150.036H278.371L285.07 176.584ZM470.716 73.0337H473.814V46.4785H470.688L470.716 73.0337ZM459.16 73.5334L460.053 73.4918L460.883 73.3738L461.658 73.1794L462.356 72.9226L463.054 72.6033L463.668 72.2361L464.219 71.7988L464.736 71.3275L465.168 70.8L465.566 70.2447L465.9 69.6346L466.159 69.0102L466.375 68.3582L466.535 67.6645L466.612 66.9707L466.654 66.277L466.612 65.5278L466.514 64.8341L466.375 64.182L466.159 63.5715L465.9 63.0027L465.587 62.4755L464.854 61.5112L463.982 60.6441L463.012 59.8741L460.918 58.4866L458.825 57.2449L457.855 56.6136L456.982 55.9199L456.25 55.2262L455.936 54.8516L455.678 54.4424L455.462 54.0261L455.322 53.5752L455.224 53.0826L455.183 52.5693V52.16L455.224 51.7854L455.322 51.4108L455.441 51.0778L455.58 50.7449L455.755 50.4466L455.971 50.176L456.215 49.9193L456.487 49.6835L456.787 49.4823L457.122 49.3297L457.478 49.1701L457.855 49.073L458.266 48.9759L458.706 48.9343H459.16H459.592L459.99 48.9759L460.388 49.0522L460.758 49.1701L461.1 49.3297L461.435 49.5031L461.728 49.7182L462.007 49.9749L462.244 50.2523L462.461 50.5645L462.663 50.9182L462.816 51.3137L462.956 51.723L463.054 52.1808L463.138 52.6734L463.172 53.2006H466.34L466.278 52.3959L466.138 51.7161L465.964 51.0224L465.748 50.3287L465.468 49.6765L465.133 49.0869L464.736 48.5389L464.303 48.0255L463.807 47.5746L463.277 47.1722L462.684 46.8184L462.07 46.5479L461.372 46.3121L460.674 46.1525L459.92 46.0554L459.111 46.0138L458.322 46.0554L457.569 46.1525L456.871 46.3121L456.173 46.5271L455.538 46.7838L454.945 47.1168L454.408 47.4914L453.913 47.9006L453.459 48.3724L453.082 48.8857L452.747 49.4199L452.475 50.0095L452.252 50.62L452.098 51.2652L451.993 51.9589V52.6526V53.3463L452.098 54.04L452.238 54.6713L452.454 55.2609L452.712 55.8089L453.026 56.3431L453.724 57.2866L454.596 58.1537L455.559 58.9168L457.652 60.3042L459.746 61.5598L460.716 62.205L461.588 62.8987L462.286 63.6479L462.6 64.0363L462.858 64.4317L463.075 64.8826L463.214 65.3335L463.312 65.8261L463.354 66.3395V66.7904L463.312 67.2413L463.214 67.6575L463.117 68.0668L462.956 68.4414L462.782 68.7952L462.565 69.1143L462.307 69.4263L462.028 69.6832L461.714 69.94L461.358 70.1343L460.96 70.3141L460.541 70.446L460.088 70.5501L459.592 70.6057H459.062H458.587L458.113 70.5501L457.673 70.4668L457.262 70.328L456.885 70.176L456.529 69.9747L456.194 69.7387L455.894 69.4819L455.622 69.1698L455.385 68.8368L455.162 68.4622L454.987 68.0529L454.848 67.6159L454.729 67.1442L454.666 66.6308V66.0828H451.498L451.54 66.9291L451.658 67.7338L451.84 68.5038L452.07 69.1976L452.391 69.8914L452.747 70.5224L453.159 71.0915L453.64 71.6045L454.15 72.0765L454.722 72.4721L455.336 72.8254L456.034 73.117L456.731 73.353L457.485 73.5126L458.28 73.6098L459.16 73.5334ZM438.358 64.397L440.528 55.3789L440.828 54.04L441.107 52.6526L441.477 50.4327H441.603L441.756 51.3969L441.973 52.6526L442.252 54.04L442.552 55.3789L444.722 64.397H438.358ZM446.822 73.0337H450.088L443.243 46.4785H439.837L432.978 73.0267H436.258L437.653 67.2621H445.413L446.822 73.0337ZM429 73.0337H432.643L423.481 58.0496L431.547 46.4785H427.758L421.743 55.4274L419.747 58.6115V46.4785H416.621V73.0267H419.747V63.3981L421.59 60.7412L429 73.0337ZM407.891 73.0337H411.011V46.4785H407.863L407.891 73.0337ZM395.492 70.0649V46.4785H392.365V73.0267H404.807V70.0649H395.492ZM380.321 70.0649H376.421V60.9424H380.042H380.593L381.13 61.0048L381.626 61.1019L382.101 61.2199L382.533 61.4003L382.952 61.5945L383.329 61.8303L383.685 62.1078L383.999 62.42L384.257 62.753L384.494 63.1484L384.69 63.5576L384.85 64.0155L384.948 64.5011L385.025 65.0353V65.5833V66.1591L384.969 66.6863L384.892 67.158L384.752 67.6089L384.592 68.0251L384.396 68.3997L384.138 68.7328L383.88 69.0241L383.566 69.2808L383.21 69.4958L382.812 69.6971L382.394 69.8359L381.919 69.9539L381.424 70.051L380.893 70.0927L380.321 70.0649ZM379.867 49.3575H380.356L380.837 49.399L381.27 49.4754L381.682 49.5933L382.038 49.7321L382.38 49.9124L382.694 50.1274L382.973 50.3633L383.21 50.6408L383.406 50.953L383.587 51.2859L383.72 51.6814L383.838 52.0907L383.922 52.5485L383.957 53.0202V53.5474V54.0816L383.922 54.5672L383.838 55.0251L383.72 55.4551L383.587 55.8506L383.406 56.2044L383.21 56.5373L382.973 56.8287L382.694 57.0853L382.394 57.3212L382.059 57.5016L381.703 57.675L381.305 57.7929L380.872 57.8762L380.419 57.9317H379.923H376.435V49.4129L379.867 49.3575ZM384.173 59.2914L384.515 59.111L384.829 58.9168L385.129 58.7017L385.422 58.4451L385.681 58.1675L385.939 57.8554L386.155 57.5224L386.371 57.1686L386.553 56.7732L386.706 56.3778L386.846 55.9477L386.965 55.4968L387.062 55.0251L387.125 54.5325L387.167 54.0192V53.492L387.146 52.7219L387.062 51.9519L386.909 51.2582L386.692 50.5645L386.413 49.9332L386.092 49.3436L385.722 48.8094L385.283 48.3377L384.787 47.9076L384.257 47.533L383.685 47.2208L383.05 46.9433L382.352 46.7491L381.619 46.5895L380.865 46.5132L380.084 46.4785H373.329V73.0267H380.607L381.472 72.9851L382.289 72.9087L383.057 72.7491L383.789 72.5346L384.487 72.257L385.122 71.9238L385.695 71.5281L386.211 71.0777L386.685 70.5848L387.104 70.0372L387.438 69.4057L387.732 68.7605L387.969 68.0668L388.129 67.2968L388.227 66.492L388.269 65.6249V65.0353L388.206 64.4872L388.129 63.9392L388.011 63.4259L387.85 62.9334L387.676 62.4616L387.46 62.0315L387.223 61.6153L386.944 61.2199L386.588 60.8383L386.267 60.5053L385.89 60.214L385.513 59.9573L385.094 59.7215L384.662 59.5203L384.173 59.2914ZM360.538 73.3738L361.368 73.3321L362.164 73.235L362.911 73.0545L363.609 72.8185L364.306 72.5068L364.914 72.1528L365.493 71.7017L366.023 71.2095L366.498 70.6404L366.916 70.0094L367.272 69.3155L367.565 68.5454L367.803 67.7407L367.984 66.8528L368.081 65.9301L368.123 64.9312V46.4785H364.955V64.9936V65.6873L364.9 66.3186L364.802 66.8875L364.662 67.4147L364.481 67.9073L364.285 68.3443L364.048 68.7535L363.769 69.1073L363.476 69.4057L363.141 69.6762L362.785 69.8983L362.387 70.0927L361.969 70.2308L361.515 70.328L361.061 70.3835H360.566H360.07L359.617 70.328L359.184 70.2308L358.765 70.0927L358.375 69.8983L358.012 69.6762L357.677 69.4057L357.384 69.1073L357.105 68.7535L356.868 68.3443L356.652 67.9073L356.491 67.4147L356.352 66.8875L356.254 66.3186L356.198 65.6873V64.9936V46.4785H352.995V64.9936V65.9926L353.092 66.9152L353.274 67.8032L353.511 68.6079L353.79 69.3709L354.146 70.0649L354.558 70.6959L355.033 71.2651L355.549 71.7572L356.121 72.2084L356.756 72.5624L357.454 72.874L358.152 73.11L358.905 73.2905L359.715 73.3877L360.538 73.3738ZM341.369 60.4082H337.741V49.4546H341.355H341.934L342.486 49.51L342.981 49.628L343.456 49.7667L343.888 49.9679L344.265 50.2038L344.621 50.4743L344.935 50.7934L345.214 51.1472L345.452 51.5565L345.668 51.9935L345.828 52.4861L345.968 53.0133L346.045 53.5821L346.108 54.1926V54.8447V55.5384L346.045 56.1835L345.968 56.7732L345.828 57.3073L345.668 57.8207L345.452 58.2716L345.214 58.6809L344.935 59.0347L344.621 59.3746L344.265 59.6452L343.888 59.8672L343.456 60.0614L342.981 60.221L342.486 60.3181L341.934 60.3735L341.369 60.4082ZM341.369 46.4855H334.629V73.0337H337.741V63.3773H341.355L342.29 63.3357L343.156 63.2386L343.972 63.0652L344.74 62.8293L345.438 62.5102L346.094 62.1355L346.687 61.6846L347.217 61.1921L347.692 60.6024L348.111 59.9782L348.466 59.2845L348.738 58.5352L348.982 57.7097L349.136 56.8217L349.233 55.8783L349.275 54.8794L349.233 53.8943L349.136 52.9925L348.982 52.1253L348.766 51.3345L348.494 50.5853L348.138 49.8916L347.72 49.2603L347.245 48.6914L346.715 48.1782L346.115 47.7273L345.459 47.3526L344.761 47.0335L343.993 46.7976L343.177 46.6242L342.311 46.5271L341.369 46.4855ZM323.087 73.5334L323.98 73.4918L324.81 73.3738L325.578 73.1794L326.276 72.9226L326.974 72.6033L327.588 72.2361L328.139 71.7988L328.656 71.3275L329.087 70.8L329.485 70.2447L329.82 69.6346L330.078 69.0102L330.295 68.3582L330.455 67.6645L330.532 66.9707L330.574 66.277L330.532 65.5278L330.434 64.8341L330.295 64.182L330.078 63.5715L329.82 63.0027L329.506 62.4755L328.773 61.5112L327.902 60.6441L326.932 59.8741L324.838 58.4866L322.745 57.2449L321.775 56.6136L320.909 55.9199L320.177 55.2262L319.862 54.8516L319.604 54.4424L319.388 54.0261L319.248 53.5752L319.144 53.0826V52.5693V52.16L319.179 51.7854L319.283 51.4108L319.402 51.0778L319.534 50.7449L319.716 50.4466L319.932 50.176L320.17 49.9193L320.449 49.6835L320.742 49.4823L321.077 49.3297L321.433 49.1701L321.81 49.073L322.228 48.9759L322.661 48.9343H323.121H323.554L323.952 48.9759L324.343 49.0522L324.72 49.1701L325.055 49.3297L325.39 49.5031L325.69 49.7182L325.969 49.9749L326.206 50.2523L326.422 50.5645L326.618 50.9182L326.778 51.3137L326.918 51.723L327.016 52.1808L327.092 52.6734L327.134 53.2006H330.295L330.239 52.3959L330.065 51.7161L329.883 51.0224L329.667 50.3287L329.395 49.6765L329.053 49.0869L328.663 48.5389L328.223 48.0255L327.727 47.5746L327.197 47.1792L326.604 46.8254L325.99 46.5548L325.292 46.319L324.594 46.1595L323.84 46.0623L323.031 46.0207L322.235 46.0623L321.488 46.1595L320.791 46.319L320.093 46.5341L319.465 46.7907L318.872 47.1237L318.335 47.4983L317.839 47.9076L317.407 48.3793L317.009 48.8927L316.695 49.4268L316.416 50.0165L316.199 50.6269L316.039 51.2721L315.941 51.9658L315.899 52.6595L315.941 53.3532L316.039 54.0469L316.178 54.6782L316.395 55.2679L316.653 55.8159L316.967 56.3501L317.665 57.2934L318.537 58.1606L319.507 58.9237L321.6 60.3111L323.694 61.5667L324.664 62.2119L325.529 62.9056L326.262 63.6548L326.583 64.0433L326.841 64.4387L327.057 64.8896L327.197 65.3405L327.295 65.833L327.33 66.3464V66.7973L327.288 67.2482L327.19 67.6645L327.092 68.0737L326.932 68.4483L326.75 68.8021L326.534 69.1212L326.276 69.4333L326.004 69.6901L325.683 69.9469L325.327 70.1413L324.936 70.3211L324.517 70.4529L324.064 70.5571L323.568 70.6126H323.038H322.556L322.082 70.5571L321.649 70.4738L321.237 70.3349L320.86 70.1829L320.505 69.9816L320.163 69.7456L319.869 69.4888L319.59 69.1767L319.353 68.8438L319.137 68.4692L318.955 68.0598L318.823 67.6228L318.705 67.1511L318.642 66.6377L318.6 66.0897H315.439L315.481 66.9361L315.599 67.7407L315.774 68.5107L316.032 69.2045L316.332 69.8983L316.681 70.5293L317.1 71.0985L317.574 71.6114L318.091 72.0834L318.663 72.4791L319.297 72.8324L319.995 73.1239L320.693 73.3599L321.447 73.5196L322.256 73.6167L323.087 73.5334ZM302.794 70.1066V60.9771H311.754V58.1259H302.801V49.3783H312.452V46.4785H299.675V73.0267H312.871V70.1135L302.794 70.1066ZM283.953 49.399H287.359H287.91L288.427 49.4615L288.922 49.5586L289.376 49.7182L289.794 49.8916L290.164 50.1274L290.526 50.3841L290.82 50.6963L291.099 51.0501L291.336 51.4247L291.552 51.8617L291.713 52.3335L291.845 52.8398L291.929 53.3949L291.985 53.9845V54.6088V55.2609L291.929 55.8506L291.831 56.4194L291.713 56.9535L291.531 57.4461L291.336 57.897L291.099 58.2924L290.82 58.6601L290.506 59L290.164 59.2706L289.773 59.5273L289.355 59.7284L288.901 59.881L288.406 59.9782L287.875 60.0614H287.317H283.953V49.399ZM292.501 73.0198H296.04L289.871 62.7183L290.485 62.5171L291.057 62.2604L291.608 61.9899L292.125 61.65L292.578 61.2823L293.032 60.8661L293.43 60.3943L293.786 59.9018L294.107 59.3538L294.379 58.785L294.616 58.1537L294.818 57.5016L294.972 56.8079L295.07 56.1141L295.153 55.3511V54.5395L295.111 53.6168L295.028 52.7219L294.867 51.8964L294.651 51.1264L294.372 50.4327L294.016 49.7389L293.604 49.1493L293.15 48.5943L292.613 48.1018L292.041 47.6717L291.385 47.3179L290.687 47.0197L289.933 46.7838L289.124 46.6103L288.252 46.5132L287.345 46.4716H280.813V73.0198H283.939V63.0235H286.654L292.501 73.0198ZM301.859 9.3651L302.606 0.929569H300.673L298.712 9.3651H301.859ZM451.547 0.943445V13.236L451.589 15.1992L451.686 17.426L451.965 21.5882L451.868 21.6299L450.619 18.64L449.921 16.9473L449.223 15.435L442.51 0.943445H439.342V27.5125H442.468V14.9841L442.175 6.82611L442.273 6.78448L444.925 13.236L451.484 27.5125H454.652V0.943445H451.547ZM426.607 24.9735H426.035L425.498 24.8972L425.002 24.7793L424.528 24.599L424.116 24.4047L423.718 24.1273L423.362 23.8359L423.048 23.4821L422.769 23.0866L422.532 22.6566L422.336 22.1848L422.155 21.6715L422.036 21.1026L421.939 20.513L421.876 19.8609V19.1672V9.26106V8.56729L421.939 7.93606L422.036 7.3464L422.155 6.77755L422.336 6.2642L422.532 5.79247L422.769 5.36238L423.048 4.96696L423.362 4.63398L423.718 4.31487L424.116 4.06514L424.528 3.84315L425.002 3.69053L425.498 3.5726L426.035 3.48936H426.607H427.158L427.695 3.5726L428.191 3.69053L428.644 3.84315L429.056 4.06514L429.454 4.31487L429.789 4.63398L430.11 4.96696L430.382 5.36238L430.619 5.79247L430.822 6.2642L430.996 6.77755L431.115 7.3464L431.212 7.93606L431.275 8.56729V9.26106V19.1533V19.847L431.212 20.4991L431.115 21.0888L430.996 21.6576L430.822 22.171L430.619 22.6427L430.382 23.0727L430.11 23.4682L429.789 23.822L429.454 24.1134L429.056 24.3908L428.644 24.5851L428.191 24.7654L427.695 24.8834L427.158 24.9596L426.607 24.9735ZM426.607 28.0259L427.514 27.9843L428.365 27.8663L429.175 27.6721L429.928 27.4154L430.626 27.0755L431.282 26.6662L431.875 26.1945L432.406 25.6465L432.88 25.036L433.32 24.3839L433.676 23.6902L433.969 22.9063L434.206 22.06L434.367 21.1582L434.464 20.2147L434.506 19.2088V9.26106L434.464 8.26208L434.367 7.33252L434.206 6.43069L433.969 5.60517L433.669 4.85596L433.313 4.16226L432.873 3.46855L432.399 2.87889L431.868 2.33086L431.247 1.81059L430.619 1.38742L429.921 1.05444L429.154 0.804704L428.365 0.610465L427.514 0.492534L426.607 0.450911L425.665 0.492534L424.821 0.610465L424.004 0.804704L423.237 1.06138L422.539 1.39436L421.883 1.81059L421.269 2.28231L420.738 2.83033L420.243 3.41999L419.824 4.1137L419.468 4.80741L419.175 5.5913L418.938 6.41681L418.756 7.31864L418.687 8.26208V9.26106V19.1533L418.728 20.1592L418.826 21.1026L419.008 22.0045L419.245 22.8508L419.538 23.6347L419.894 24.3284L420.313 24.9805L420.808 25.5909L421.338 26.1389L421.953 26.6107L422.609 27.02L423.306 27.3599L424.074 27.6166L424.891 27.8108L425.735 27.9287L426.607 28.0259ZM415.945 0.971196H401.346V3.8709H407.062V27.5125H410.229V3.8709H415.945V0.971196ZM391.947 28.0259L392.84 27.9843L393.67 27.8663L394.445 27.6721L395.143 27.4154L395.841 27.0963L396.455 26.7217L397.006 26.2916L397.522 25.8199L397.955 25.2927L398.352 24.7377L398.687 24.1273L398.945 23.5029L399.162 22.8508L399.322 22.1571L399.399 21.4634L399.441 20.7697L399.399 20.0204L399.301 19.3267L399.162 18.6747L398.945 18.0642L398.687 17.4954L398.373 16.9612L397.675 16.0039L396.804 15.1368L395.834 14.3667L393.74 12.9793L391.647 11.7376L390.586 11.0994L389.713 10.4057L388.981 9.71196L388.667 9.33734L388.408 8.92802L388.192 8.51183L388.053 8.06093L387.983 7.63078L387.941 7.11748V6.70818L387.983 6.31276L388.08 5.93816L388.199 5.60517L388.339 5.27219L388.513 4.97389L388.736 4.69641L388.974 4.46055L389.246 4.22469L389.546 4.03045L389.881 3.85702L390.237 3.71828L390.614 3.60035L391.025 3.51711L391.472 3.46855H391.926H392.358L392.756 3.50323L393.154 3.58648L393.524 3.70441L393.866 3.85702L394.201 4.03739L394.494 4.25244L394.773 4.4883L395.01 4.76578L395.227 5.09877L395.429 5.43175L395.582 5.82716L395.722 6.25726L395.82 6.70818L395.904 7.20071V7.73483H399.071L399.029 6.9371L398.911 6.16708L398.736 5.43868L398.52 4.74497L398.241 4.16226L397.906 3.55179L397.508 3.00376L397.055 2.45573L396.559 2.00482L396.022 1.60941L395.429 1.25562L394.815 0.985071L394.117 0.74921L393.419 0.589653L392.679 0.492534L391.87 0.450911L391.081 0.492534L390.328 0.589653L389.63 0.74921L388.932 0.964254L388.297 1.22093L387.704 1.55391L387.167 1.92852L386.678 2.3378L386.239 2.80952L385.848 3.32287L385.527 3.85702L385.248 4.44668L385.032 5.05714L384.878 5.70229L384.773 6.396V7.08972V7.78342L384.878 8.47712L385.011 9.10842L385.234 9.69807L385.485 10.2461L385.806 10.7803L386.588 11.6821L387.453 12.5492L388.422 13.3123L390.516 14.6997L392.61 15.9623L393.58 16.6074L394.452 17.3011L395.15 18.0503L395.464 18.4388L395.722 18.8342L395.938 19.2852L396.078 19.7361L396.176 20.2286L396.218 20.7419V21.2136L396.176 21.6438L396.078 22.0808L395.98 22.4693L395.82 22.8438L395.645 23.1976L395.429 23.5307L395.171 23.8289L394.892 24.1064L394.578 24.3423L394.222 24.5365L393.824 24.71L393.412 24.8486L392.952 24.9528L392.456 25.0082H391.926L391.472 24.9735L390.998 24.9181L390.558 24.8348L390.146 24.6961L389.769 24.5434L389.413 24.3423L389.078 24.1064L388.778 23.8497L388.506 23.5376L388.269 23.2046L388.046 22.83L387.871 22.4207L387.732 21.9837L387.613 21.512L387.558 20.9986L387.516 20.4506H384.348L384.389 21.2969L384.508 22.1016L384.69 22.8716L384.941 23.5653L385.241 24.259L385.597 24.8903L386.009 25.4591L386.483 25.9725L387 26.4442L387.571 26.8327L388.206 27.1865L388.904 27.4848L389.602 27.7206L390.349 27.8802L391.158 27.9773L391.947 28.0259ZM377.251 27.5334H380.398V0.943445H377.251V27.5334ZM370.845 27.5334H374.488L365.304 12.5284L373.413 0.943445H369.637L363.56 9.91311L361.578 13.0972V0.943445H358.437V27.5125H361.578V17.8769L363.399 15.22L370.845 27.5334ZM344.119 24.599V15.435H353.092V12.6047H344.119V3.83621H353.79V0.943445H340.992V27.5125H354.188V24.5781L344.119 24.599ZM328.927 24.599H325.055V15.4004H328.669H329.22L329.737 15.4628L330.246 15.5599L330.72 15.6778L331.16 15.8582L331.572 16.0524L331.949 16.2883L332.284 16.5658L332.605 16.878L332.856 17.2317L333.093 17.6064L333.296 18.0364L333.449 18.4873L333.554 18.9799L333.631 19.4933V20.0621V20.6309L333.568 21.1443L333.491 21.6368L333.351 22.0669L333.198 22.4831L332.996 22.8577L332.737 23.1907L332.486 23.4821L332.165 23.7388L331.809 23.9538L331.418 24.1549L331 24.2937L330.525 24.4116L330.03 24.5087H329.499L328.927 24.599ZM328.474 3.89171H328.99L329.443 3.93334L329.897 4.00964L330.295 4.12757L330.672 4.26631L331.007 4.44668L331.307 4.66173L331.579 4.89759L331.816 5.17507L332.019 5.48724L332.193 5.82023L332.333 6.21564L332.451 6.62493L332.528 7.07584L332.57 7.5545V8.08175V8.61587L332.528 9.10148L332.451 9.55932L332.333 9.9894L332.193 10.3848L332.032 10.7386L331.816 11.0716L331.579 11.363L331.321 11.6197L331.028 11.8555L330.693 12.0567L330.337 12.2093L329.939 12.3273L329.506 12.4105L329.046 12.4659H328.558H325.069V3.8709L328.474 3.89171ZM332.786 13.8048L333.121 13.6245L333.442 13.4302L333.756 13.2152L334.035 12.9585L334.307 12.681L334.545 12.3688L334.782 12.0359L334.984 11.6821L335.18 11.2866L335.34 10.8913L335.48 10.4611L335.599 10.0102L335.696 9.5385L335.752 9.04595L335.794 8.53265V8.0054L335.752 7.19377L335.675 6.43069L335.515 5.73698L335.298 5.04327L335.019 4.41199L334.705 3.82234L334.328 3.28818L333.896 2.81646L333.4 2.38636L332.856 2.00482L332.284 1.69265L331.649 1.41517L330.951 1.22093L330.218 1.06138L329.464 0.985071L328.656 0.943445H321.851V27.5125H329.15L330.065 27.4709L330.895 27.3946L331.663 27.235L332.36 27.02L333.058 26.7425L333.672 26.4095L334.245 26.0141L334.775 25.5632L335.25 25.0707L335.647 24.5226L336.003 23.8914L336.303 23.2462L336.541 22.5525L336.694 21.7825L336.799 20.9778V20.1107V19.521L336.743 18.9521L336.659 18.418L336.548 17.9116L336.387 17.3983L336.206 16.9473L335.989 16.4964L335.731 16.0802L335.459 15.6848L335.159 15.331L334.824 15.0188L334.468 14.7066L334.07 14.45L333.658 14.2141L333.219 14.0129L332.786 13.8048ZM307.735 24.5781L317.846 3.07314V0.943445H304.518V3.8709H314.057L303.988 25.2719V27.5125H318.07V24.5781H307.735ZM288.022 24.9735H287.45L286.919 24.8972L286.424 24.7793L285.963 24.599L285.551 24.4047L285.154 24.1273L284.798 23.8359L284.484 23.4821L284.205 23.0866L283.967 22.6566L283.772 22.1848L283.59 21.6715L283.472 21.1026L283.374 20.513L283.318 19.8609V19.1672V9.26106V8.56729L283.374 7.93606L283.472 7.3464L283.59 6.77755L283.772 6.2642L283.967 5.79247L284.205 5.36238L284.484 4.96696L284.798 4.63398L285.154 4.31487L285.551 4.06514L285.963 3.84315L286.424 3.69053L286.919 3.5726L287.45 3.48936H288.022H288.601L289.111 3.5726L289.605 3.69053L290.059 3.84315L290.499 4.06514L290.868 4.31487L291.231 4.63398L291.545 4.96696L291.825 5.36238L292.062 5.79247L292.257 6.2642L292.432 6.77755L292.55 7.3464L292.655 7.93606L292.711 8.56729V9.26106V19.1533V19.847L292.655 20.4991L292.55 21.0888L292.432 21.6576L292.257 22.171L292.062 22.6427L291.825 23.0727L291.545 23.4682L291.231 23.822L290.868 24.1134L290.499 24.3908L290.059 24.5851L289.605 24.7654L289.111 24.8834L288.601 24.9596L288.022 24.9735ZM490.596 95.1559H471.448V99.7968H478.489V128.996H483.493V99.7759H490.596V95.1559ZM454.415 99.7968H458.273H458.888L459.481 99.8731L460.018 99.9911L460.528 100.151L460.981 100.366L461.421 100.623L461.798 100.934L462.154 101.288L462.468 101.684L462.726 102.135L462.963 102.627L463.138 103.176L463.277 103.765L463.396 104.397L463.459 105.09V105.818V106.547L463.396 107.24L463.277 107.893L463.138 108.503L462.963 109.051L462.726 109.564L462.447 110.036L462.154 110.445L461.798 110.82L461.4 111.139L460.967 111.431L460.493 111.645L459.997 111.826L459.439 111.965L458.846 112.041H458.218H454.415V99.7968ZM464.345 128.996H469.787L462.412 116.037L463.11 115.746L463.807 115.412L464.422 115.017L465.015 114.566L465.566 114.094L466.062 113.54L466.514 112.97L466.933 112.346L467.31 111.652L467.624 110.959L467.903 110.196L468.12 109.384L468.294 108.545L468.434 107.657L468.517 106.714V105.749V104.528L468.378 103.369L468.182 102.266L467.882 101.268L467.505 100.324L467.052 99.4365L466.514 98.6522L465.907 97.9587L465.21 97.307L464.443 96.7586L463.612 96.2866L462.698 95.8917L461.714 95.5793L460.66 95.3641L459.537 95.2253L458.35 95.1837H449.509V129.023H454.394V116.689H457.464L464.345 128.996ZM433.271 124.833H432.622L432.022 124.75L431.471 124.611L430.94 124.417L430.466 124.181L430.026 123.89L429.628 123.549L429.272 123.161L428.958 122.724L428.686 122.238L428.463 121.684L428.267 121.094L428.128 120.463L428.009 119.769L427.953 119.075V118.312V105.874V105.083L428.009 104.39L428.128 103.696L428.267 103.051L428.463 102.461L428.686 101.927L428.958 101.434L429.272 100.983L429.628 100.588L430.026 100.255L430.466 99.9634L430.94 99.7274L431.471 99.5268L432.022 99.3879L432.622 99.3116H433.271H433.906L434.499 99.3879L435.072 99.5268L435.588 99.7274L436.063 99.9634L436.495 100.255L436.893 100.588L437.248 100.983L437.562 101.434L437.841 101.927L438.079 102.461L438.274 103.051L438.414 103.696L438.532 104.39L438.595 105.083V105.874V118.243V119.006L438.532 119.7L438.414 120.393L438.274 121.024L438.079 121.614L437.841 122.169L437.562 122.655L437.248 123.092L436.893 123.48L436.495 123.82L436.063 124.112L435.588 124.348L435.072 124.541L434.499 124.68L433.906 124.763L433.271 124.833ZM433.271 129.626L434.458 129.571L435.588 129.432L436.656 129.176L437.646 128.843L438.574 128.406L439.426 127.9L440.214 127.289L440.912 126.595L441.547 125.804L442.098 124.958L442.573 124.015L442.971 123.016L443.285 121.934L443.508 120.775L443.648 119.554V118.257V105.874V104.576L443.508 103.356L443.285 102.197L442.971 101.115L442.573 100.109L442.098 99.1658L441.547 98.3197L440.912 97.5353L440.214 96.8419L439.426 96.2311L438.574 95.732L437.646 95.3017L436.656 94.9692L435.588 94.7124L434.458 94.5735L433.271 94.5111L432.085 94.5735L430.961 94.7124L429.887 94.9692L428.903 95.3017L427.967 95.732L427.124 96.245L426.328 96.8558L425.63 97.5492L424.995 98.3336L424.444 99.1797L423.969 100.123L423.572 101.129L423.258 102.211L423.041 103.369L422.902 104.59L422.86 105.888V118.257L422.902 119.554L423.041 120.775L423.258 121.934L423.572 123.016L423.969 124.015L424.444 124.958L424.995 125.804L425.63 126.595L426.328 127.289L427.124 127.9L427.967 128.406L428.903 128.843L429.887 129.176L430.961 129.432L432.085 129.571L433.271 129.626ZM408.429 112.464H404.396V99.7759H408.429H409.127L409.762 99.8523L410.334 99.9703L410.871 100.151L411.367 100.366L411.82 100.644L412.232 100.976L412.588 101.33L412.909 101.76L413.181 102.211L413.418 102.745L413.621 103.293L413.76 103.904L413.879 104.597L413.935 105.291V106.033V106.824L413.879 107.567L413.76 108.26L413.621 108.885L413.418 109.474L413.181 109.988L412.909 110.459L412.588 110.896L412.232 111.264L411.82 111.583L411.367 111.84L410.871 112.055L410.334 112.228L409.762 112.346L409.127 112.43L408.429 112.464ZM408.464 95.1212H399.469V128.961H404.396V117.078H408.464L409.671 117.043L410.822 116.904L411.911 116.668L412.916 116.356L413.851 115.961L414.695 115.468L415.491 114.899L416.189 114.205L416.824 113.512L417.354 112.687L417.828 111.777L418.226 110.778L418.519 109.717L418.742 108.572L418.875 107.352L418.917 106.054L418.875 104.799L418.742 103.598L418.519 102.475L418.226 101.434L417.828 100.47L417.354 99.5684L416.824 98.7424L416.189 98.0143L415.491 97.3208L414.695 96.7447L413.851 96.2519L412.916 95.8431L411.911 95.5307L410.822 95.2947L409.671 95.1559L408.464 95.1212ZM384.69 129.592L385.862 129.536L386.944 129.397L387.976 129.162L388.925 128.843L389.811 128.433L390.628 127.962L391.374 127.414L392.072 126.817L392.665 126.123L393.175 125.395L393.615 124.632L393.991 123.806L394.264 122.96L394.48 122.072L394.605 121.17V120.227V119.283L394.48 118.375L394.284 117.528L394.026 116.744L393.712 116.051L393.314 115.357L392.407 114.094L391.319 112.977L390.076 111.985L388.792 111.105L387.467 110.279L384.836 108.725L383.629 107.955L382.54 107.15L381.633 106.304L381.235 105.853L380.921 105.361L380.663 104.868L380.461 104.32L380.342 103.765L380.307 103.162V102.704L380.363 102.294L380.44 101.899L380.579 101.524L380.74 101.17L380.935 100.838L381.172 100.546L381.431 100.269L381.731 100.012L382.066 99.7968L382.422 99.617L382.798 99.4643L383.231 99.3463L383.664 99.263L384.138 99.2075H384.655H385.129L385.604 99.263L386.043 99.3463L386.434 99.4782L386.832 99.6378L387.188 99.8523L387.523 100.088L387.823 100.366L388.094 100.678L388.332 101.032L388.555 101.427L388.73 101.858L388.869 102.336L388.967 102.843L389.051 103.397V103.987H394.054L393.998 102.926L393.859 101.92L393.621 100.976L393.342 100.074L392.965 99.2283L392.533 98.4585L392.037 97.7297L391.465 97.0848L390.816 96.4949L390.118 95.9819L389.351 95.5515L388.52 95.1767L387.628 94.8789L386.678 94.6846L385.674 94.5458L384.606 94.5041L383.552 94.5458L382.547 94.6846L381.619 94.8789L380.726 95.1559L379.895 95.5099L379.121 95.9194L378.423 96.4116L377.774 96.9669L377.195 97.5562L376.7 98.2017L376.267 98.8951L375.911 99.6448L375.639 100.449L375.416 101.275L375.297 102.141V103.044V103.952L375.416 104.819L375.618 105.624L375.869 106.387L376.19 107.116L376.567 107.81L377.495 109.045L378.562 110.147L379.77 111.146L382.38 112.901L384.99 114.49L386.197 115.301L387.286 116.127L388.199 117.008L388.569 117.479L388.89 117.972L389.141 118.507L389.344 119.034L389.462 119.624L389.504 120.234V120.726L389.441 121.198L389.344 121.67L389.225 122.1L389.051 122.495L388.848 122.891L388.59 123.245L388.318 123.556L387.997 123.855L387.62 124.105L387.229 124.341L386.79 124.521L386.316 124.68L385.806 124.777L385.248 124.854H384.655H384.103L383.587 124.798L383.091 124.701L382.617 124.562L382.184 124.382L381.786 124.146L381.41 123.89L381.075 123.598L380.761 123.245L380.502 122.87L380.265 122.44L380.07 121.982L379.909 121.475L379.791 120.921L379.728 120.331L379.693 119.707H374.725L374.781 120.824L374.92 121.906L375.137 122.912L375.451 123.855L375.848 124.736L376.302 125.541L376.86 126.29L377.474 126.983L378.172 127.573L378.925 128.107L379.756 128.558L380.621 128.933L381.556 129.224L382.561 129.446L383.615 129.578L384.69 129.592ZM365.151 95.1212V108.302L365.214 110.876L365.353 113.866L365.57 116.932L365.849 119.707L365.688 119.803L362.597 112.381L354.76 95.1351H349.875V128.975H354.76V115.919L354.719 113.227L354.579 110.161L354.405 107.053L354.167 104.279L354.321 104.182L357.531 112.381L365.13 128.975H370.056V95.1351L365.151 95.1212ZM331.46 117.611L333.554 108.524L333.952 106.7L334.252 104.75L334.761 101.281H334.901L335.138 102.856L335.459 104.743L336.157 108.538L338.292 117.625L331.46 117.611ZM340.992 128.975H346.094L337.553 95.1351H332.249L323.645 128.975H328.788L330.351 122.155H339.352L340.992 128.975ZM307.149 99.7759H310.986H311.594L312.194 99.8523L312.724 99.9703L313.24 100.13L313.694 100.345L314.127 100.602L314.504 100.914L314.86 101.268L315.181 101.663L315.432 102.114L315.676 102.607L315.85 103.155L315.99 103.744L316.109 104.376L316.165 105.069V105.797V106.526L316.109 107.22L315.99 107.872L315.85 108.482L315.676 109.031L315.432 109.544L315.16 110.016L314.86 110.424L314.504 110.799L314.113 111.119L313.694 111.41L313.22 111.625L312.703 111.805L312.152 111.944L311.58 112.02H310.945H307.149V99.7759ZM317.079 128.975H322.514L315.118 116.016L315.816 115.725L316.513 115.392L317.142 114.997L317.735 114.545L318.272 114.073L318.788 113.519L319.241 112.95L319.653 112.326L320.03 111.631L320.344 110.938L320.623 110.175L320.839 109.363L321.021 108.524L321.16 107.636L321.237 106.693V105.728L321.195 104.507L321.056 103.349L320.86 102.246L320.56 101.247L320.19 100.303L319.716 99.4157L319.179 98.6313L318.565 97.9379L317.867 97.2861L317.093 96.7378L316.241 96.2658L315.334 95.8708L314.364 95.5585L313.317 95.3433L312.187 95.2045L311 95.1628H302.208V129.002H307.093V116.689H310.156L317.079 128.975ZM254.213 176.584H258.19V0H254.157L254.213 176.584ZM298.049 95.1351H278.867V99.7759H285.907V128.975H290.91V99.7759H298.015L298.049 95.1351ZM76.6265 176.528V98.7355L76.5707 96.7864L76.4311 94.8789L76.1939 92.9708L75.8589 91.1259L74.9098 87.4838L73.6264 84.0153L72.0004 80.7065L70.0813 77.5843L67.8901 74.6503L65.4128 71.9585L62.7053 69.5027L59.7536 67.2898L56.6134 65.3821L53.2919 63.8213L49.8028 62.5379L46.1253 61.5667L44.2692 61.2337L42.3502 60.9979L40.4312 60.8591L38.4704 60.8037H29.4756L25.6585 52.937H38.4704L43.041 53.1521L47.5349 53.8458L51.9032 54.928L56.1389 56.4472L60.1932 58.3548L64.0521 60.6719L67.6877 63.3218L71.0932 66.388L74.0793 69.6485L76.7312 73.1725L79.0411 76.9464L80.9812 80.9348L82.5444 85.146L83.6742 89.5301L84.086 91.7707L84.386 94.0738L84.5605 96.3907L84.6233 98.7355V176.528H76.6265ZM143.742 176.528V98.7355L143.805 96.7864L143.944 94.8789L144.182 92.9708L144.517 91.1259L145.466 87.4838L146.75 84.0153L148.376 80.7065L150.295 77.5843L152.485 74.6503L154.963 71.9585L157.671 69.5027L160.615 67.2898L163.762 65.3821L167.105 63.8213L170.594 62.5379L174.25 61.5945L176.114 61.2615L178.033 61.0256L179.952 60.8869L181.905 60.8314H190.908L194.689 52.937H181.898L177.335 53.1521L172.841 53.8458L168.473 54.928L164.237 56.4472L160.183 58.3548L156.31 60.6441L152.674 63.3218L149.29 66.388L146.303 69.6485L143.651 73.1725L141.342 76.9464L139.402 80.9348L137.839 85.146L136.708 89.5301L136.296 91.7707L135.996 94.0738L135.822 96.3907L135.759 98.7355V176.528H143.749H143.742ZM110.178 22.0045L110.952 21.2553L111.748 20.513L113.408 19.0562L116.409 16.649L119.535 14.4292L122.78 12.348L126.157 10.4611L133.184 7.17294L140.539 4.56461L148.117 2.53898L155.828 1.15156L163.567 0.277484L171.243 0H220.376L216.559 7.86664H171.341L163.246 8.15803L155.319 9.10148L147.58 10.7178L140.086 13.0556L136.443 14.5124L132.863 16.1426L129.374 17.9949L125.997 20.0204L122.69 22.2819L119.486 24.7169L116.381 27.3946L113.394 30.2804L110.171 33.8045L106.926 30.2804L103.974 27.3946L100.89 24.7169L97.6936 22.2819L94.4066 20.0204L91.0087 17.9949L87.5194 16.1426L83.9534 14.5124L80.3182 13.0556L72.8239 10.7178L65.057 9.10148L57.1298 8.15803L49.0352 7.86664H3.79609L0 0H49.1329L56.8088 0.277484L64.5406 1.12381L72.2586 2.51123L79.8367 4.53686L87.1705 7.166L94.2043 10.4819L97.5679 12.3688L100.813 14.45L103.974 16.649L106.96 19.0493L108.621 20.506L109.417 21.2483L110.178 22.0045ZM110.178 49.0591L108.3 46.541L106.318 44.106L104.225 41.7683L102.048 39.5415L96.7235 34.6855L90.9529 30.3776L84.7768 26.6454L78.2316 23.496L71.3514 20.9778L64.1987 19.1533L60.5142 18.5012L56.753 18.0364L52.9499 17.7451L49.112 17.6479H8.54817L12.3652 25.5147H49.0143L52.4615 25.5909L55.8389 25.8684L59.1814 26.2777L62.489 26.8674L68.8949 28.5184L75.0494 30.7799L80.9044 33.5963L86.4378 36.9331L91.6019 40.7901L96.3676 45.0911L98.8799 47.7273L101.26 50.5021L103.471 53.4156L105.53 56.4263L103.667 60.0197L102.006 63.7172L100.548 67.5118L99.2777 71.39L98.0704 68.8299L96.7445 66.3325L95.2999 63.9184L93.7576 61.5737L92.1114 59.2845L90.3667 57.1062L88.5104 54.9834L86.5704 52.9578L82.2583 49.0591L77.5896 45.5906L72.6075 42.5799L67.3248 40.0271L61.7423 38.0014L55.9435 36.503L53.0337 35.9688L50.0261 35.5942L46.9418 35.3792L43.8365 35.296H17.1104L20.9344 43.1418H43.7527L46.4463 43.2042L49.112 43.4193L51.7287 43.7523L54.3177 44.2031L59.314 45.5004L64.1987 47.2763L68.7833 49.4962L73.117 52.1114L77.1709 55.1361L80.9114 58.5213L84.1139 61.9899L87.024 65.7498L89.5572 69.7803L91.7275 74.0256L93.5273 78.4728L94.923 83.1345L95.8721 87.9274L96.3467 92.8875L96.3885 176.5H104.323V95.4197L104.378 91.3341L104.56 87.4213L104.895 83.6405L105.432 79.9499L106.179 76.287L107.212 72.5894L108.517 68.816L110.157 64.9035L111.797 68.816L113.101 72.5894L114.134 76.287L114.887 79.9499L115.418 83.6405L115.753 87.4213L115.934 91.3341L115.99 95.4197V176.5H124.001L124.043 92.8875L124.517 87.9274L125.466 83.1345L126.827 78.4728L128.628 74.0256L130.784 69.7803L133.337 65.7498L136.227 61.9899L139.43 58.5213L143.17 55.1361L147.238 52.1114L151.572 49.4962L156.177 47.2763L161.006 45.5004L166.03 44.2031L168.619 43.7523L171.229 43.4193L173.901 43.2042L176.595 43.1418H199.421L203.237 35.2751H176.546L173.441 35.3584L170.378 35.5942L167.349 35.9688L164.383 36.4961L158.606 37.9945L153.023 40.0201L147.741 42.5729L142.737 45.5837L138.09 49.0522L133.777 52.9508L131.887 54.9834L130.023 57.1062L128.286 59.2845L126.646 61.5667L125.083 63.9114L123.687 66.3256L122.341 68.823L121.133 71.3831L119.87 67.5049L118.405 63.7103L116.744 60.0128L114.88 56.4194L116.883 53.4156L119.096 50.5229L121.475 47.748L124.001 45.0911L128.774 40.7624L133.931 36.9053L139.472 33.5686L145.326 30.7521L151.481 28.4907L157.887 26.8397L161.195 26.25L164.537 25.8407L167.914 25.5632L171.362 25.4869H208.011L211.827 17.6202H171.257L167.419 17.7174L163.623 18.0087L159.883 18.4804L156.205 19.1325L149.025 20.9778L142.145 23.5168L135.599 26.6662L129.423 30.3983L123.645 34.6855L118.307 39.5415L116.13 41.803L114.036 44.1407L112.055 46.5756L110.178 49.0591ZM288.022 28.0051L288.936 27.9634L289.787 27.8455L290.596 27.6513L291.35 27.3946L292.048 27.0547L292.697 26.6454L293.29 26.1737L293.827 25.6256L294.302 25.0152L294.735 24.3631L295.091 23.6693L295.391 22.8855L295.628 22.0391L295.781 21.1373L295.886 20.1939V19.188V9.26106V8.26208L295.781 7.33252L295.628 6.43069L295.391 5.60517L295.104 4.85596L294.749 4.16226L294.316 3.46855L293.841 2.87889L293.304 2.33086L292.711 1.85914L292.062 1.44292L291.364 1.10994L290.61 0.853265L289.787 0.610465L288.936 0.492534L288.022 0.450911L287.115 0.492534L286.263 0.610465L285.454 0.804704L284.707 1.06138L284.009 1.38742L283.36 1.80364L282.76 2.27537L282.23 2.8234L281.734 3.41305L281.315 4.10676L280.966 4.80047L280.666 5.58436L280.429 6.40988L280.248 7.3117L280.15 8.24126L280.115 9.24023V19.1533L280.15 20.1592L280.248 21.1026L280.429 22.0045L280.666 22.8508L280.966 23.6347L281.315 24.3284L281.734 24.9805L282.23 25.5909L282.76 26.1389L283.36 26.6107L284.009 27.0547L284.707 27.3946L285.461 27.6513L286.27 27.8455L287.122 27.9634L288.022 28.0051Z" fill="#254DAF"/>
</g>
<path d="M312.936 62.3917C309.318 62.3917 305.979 61.5523 302.92 59.8735C299.898 58.1574 297.491 55.7884 295.701 52.7665C293.947 49.7074 293.071 46.2751 293.071 42.4698C293.071 38.6645 293.947 35.251 295.701 32.2291C297.491 29.2072 299.898 26.8569 302.92 25.1781C305.979 23.462 309.318 22.6039 312.936 22.6039C316.593 22.6039 319.931 23.462 322.953 25.1781C326.013 26.8569 328.419 29.2072 330.172 32.2291C331.926 35.251 332.802 38.6645 332.802 42.4698C332.802 46.2751 331.926 49.7074 330.172 52.7665C328.419 55.7884 326.013 58.1574 322.953 59.8735C319.931 61.5523 316.593 62.3917 312.936 62.3917ZM312.936 56.8516C315.511 56.8516 317.805 56.2734 319.82 55.1169C321.834 53.9231 323.401 52.2442 324.52 50.0804C325.677 47.8793 326.255 45.3425 326.255 42.4698C326.255 39.5972 325.677 37.079 324.52 34.9152C323.401 32.7514 321.834 31.0912 319.82 29.9347C317.805 28.7782 315.511 28.2 312.936 28.2C310.362 28.2 308.068 28.7782 306.053 29.9347C304.039 31.0912 302.453 32.7514 301.297 34.9152C300.177 37.079 299.618 39.5972 299.618 42.4698C299.618 45.3425 300.177 47.8793 301.297 50.0804C302.453 52.2442 304.039 53.9231 306.053 55.1169C308.068 56.2734 310.362 56.8516 312.936 56.8516ZM343.221 36.4261H336.282L342.158 23.1076H346.635L343.221 36.4261ZM358.789 56.4599H376.864V62H351.234V57.0195L369.253 28.6476H351.234V23.1076H376.864V28.088L358.789 56.4599ZM404.655 42.0222C406.744 42.3952 408.516 43.4958 409.971 45.3238C411.426 47.1519 412.153 49.2224 412.153 51.5354C412.153 53.5127 411.631 55.3034 410.586 56.9076C409.579 58.4745 408.105 59.7243 406.165 60.657C404.226 61.5523 401.968 62 399.394 62H383.837V23.1076H398.667C401.316 23.1076 403.591 23.5553 405.494 24.4506C407.397 25.346 408.833 26.5585 409.803 28.088C410.773 29.5803 411.258 31.2591 411.258 33.1245C411.258 35.3629 410.661 37.2282 409.467 38.7205C408.273 40.2128 406.669 41.3133 404.655 42.0222ZM390.217 39.448H398.107C400.196 39.448 401.819 38.9817 402.976 38.049C404.17 37.079 404.766 35.6986 404.766 33.9079C404.766 32.1545 404.17 30.7928 402.976 29.8228C401.819 28.8155 400.196 28.3119 398.107 28.3119H390.217V39.448ZM398.835 56.7957C400.998 56.7957 402.696 56.2734 403.927 55.2288C405.158 54.1842 405.774 52.7292 405.774 50.8639C405.774 48.9612 405.121 47.4503 403.815 46.3311C402.509 45.2119 400.775 44.6523 398.611 44.6523H390.217V56.7957H398.835ZM425.465 28.2559V39.6718H438.896V44.8761H425.465V56.7957H440.575V62H419.086V23.0516H440.575V28.2559H425.465ZM469.865 62L454.812 44.5963V62H448.432V23.1076H454.812V40.847L469.921 23.1076H477.923L461.023 42.5818L478.203 62H469.865ZM490.224 23.1076V62H483.845V23.1076H490.224ZM511.415 62.3917C508.803 62.3917 506.453 61.944 504.364 61.0487C502.274 60.116 500.633 58.8103 499.439 57.1315C498.245 55.4526 497.648 53.494 497.648 51.2556H504.476C504.625 52.9344 505.278 54.3148 506.434 55.3967C507.628 56.4786 509.288 57.0195 511.415 57.0195C513.616 57.0195 515.332 56.4972 516.563 55.4526C517.794 54.3707 518.41 52.9904 518.41 51.3116C518.41 50.0058 518.018 48.9426 517.234 48.1218C516.488 47.3011 515.537 46.6669 514.381 46.2192C513.261 45.7715 511.694 45.2865 509.68 44.7642C507.143 44.0927 505.072 43.4212 503.468 42.7496C501.901 42.0408 500.558 40.9589 499.439 39.5039C498.32 38.049 497.76 36.109 497.76 33.6841C497.76 31.4457 498.32 29.487 499.439 27.8082C500.558 26.1294 502.125 24.8423 504.14 23.947C506.154 23.0516 508.486 22.6039 511.135 22.6039C514.903 22.6039 517.981 23.5553 520.368 25.4579C522.793 27.3232 524.136 29.8974 524.397 33.1804H517.346C517.234 31.7628 516.563 30.5503 515.332 29.543C514.101 28.5357 512.478 28.0321 510.463 28.0321C508.635 28.0321 507.143 28.4984 505.986 29.4311C504.83 30.3638 504.252 31.7068 504.252 33.4602C504.252 34.6541 504.606 35.6427 505.315 36.4261C506.061 37.1723 506.994 37.7692 508.113 38.2169C509.232 38.6645 510.762 39.1495 512.702 39.6718C515.276 40.3807 517.365 41.0895 518.969 41.7983C520.611 42.5072 521.991 43.6077 523.11 45.1C524.267 46.5549 524.845 48.5136 524.845 50.9758C524.845 52.9531 524.304 54.8184 523.222 56.5718C522.178 58.3253 520.629 59.7429 518.578 60.8248C516.563 61.8694 514.175 62.3917 511.415 62.3917ZM557.499 23.1076V28.3119H547.146V62H540.767V28.3119H530.358V23.1076H557.499ZM581.699 62.3917C578.08 62.3917 574.741 61.5523 571.682 59.8735C568.66 58.1574 566.254 55.7884 564.463 52.7665C562.71 49.7074 561.833 46.2751 561.833 42.4698C561.833 38.6645 562.71 35.251 564.463 32.2291C566.254 29.2072 568.66 26.8569 571.682 25.1781C574.741 23.462 578.08 22.6039 581.699 22.6039C585.355 22.6039 588.694 23.462 591.716 25.1781C594.775 26.8569 597.181 29.2072 598.935 32.2291C600.688 35.251 601.565 38.6645 601.565 42.4698C601.565 46.2751 600.688 49.7074 598.935 52.7665C597.181 55.7884 594.775 58.1574 591.716 59.8735C588.694 61.5523 585.355 62.3917 581.699 62.3917ZM581.699 56.8516C584.273 56.8516 586.568 56.2734 588.582 55.1169C590.597 53.9231 592.164 52.2442 593.283 50.0804C594.439 47.8793 595.018 45.3425 595.018 42.4698C595.018 39.5972 594.439 37.079 593.283 34.9152C592.164 32.7514 590.597 31.0912 588.582 29.9347C586.568 28.7782 584.273 28.2 581.699 28.2C579.125 28.2 576.83 28.7782 574.816 29.9347C572.801 31.0912 571.216 32.7514 570.059 34.9152C568.94 37.079 568.38 39.5972 568.38 42.4698C568.38 45.3425 568.94 47.8793 570.059 50.0804C571.216 52.2442 572.801 53.9231 574.816 55.1169C576.83 56.2734 579.125 56.8516 581.699 56.8516ZM639.796 62H633.416L614.222 32.9566V62H607.843V23.0516H614.222L633.416 52.0391V23.0516H639.796V62ZM682.912 62L673.958 46.443H669.089V62H662.71V23.1076H676.14C679.125 23.1076 681.643 23.6299 683.695 24.6745C685.784 25.7191 687.332 27.1181 688.34 28.8715C689.384 30.6249 689.907 32.5835 689.907 34.7473C689.907 37.2842 689.16 39.5972 687.668 41.6864C686.213 43.7383 683.956 45.1373 680.897 45.8834L690.522 62H682.912ZM669.089 41.3506H676.14C678.528 41.3506 680.319 40.7537 681.513 39.5599C682.744 38.3661 683.359 36.7619 683.359 34.7473C683.359 32.7327 682.762 31.1659 681.569 30.0467C680.375 28.8901 678.565 28.3119 676.14 28.3119H669.089V41.3506ZM704.447 28.2559V39.6718H717.878V44.8761H704.447V56.7957H719.556V62H698.068V23.0516H719.556V28.2559H704.447ZM740.229 62.3917C737.617 62.3917 735.267 61.944 733.178 61.0487C731.089 60.116 729.447 58.8103 728.253 57.1315C727.06 55.4526 726.463 53.494 726.463 51.2556H733.29C733.439 52.9344 734.092 54.3148 735.248 55.3967C736.442 56.4786 738.102 57.0195 740.229 57.0195C742.43 57.0195 744.146 56.4972 745.377 55.4526C746.608 54.3707 747.224 52.9904 747.224 51.3116C747.224 50.0058 746.832 48.9426 746.049 48.1218C745.303 47.3011 744.351 46.6669 743.195 46.2192C742.076 45.7715 740.509 45.2865 738.494 44.7642C735.957 44.0927 733.887 43.4212 732.283 42.7496C730.716 42.0408 729.373 40.9589 728.253 39.5039C727.134 38.049 726.575 36.109 726.575 33.6841C726.575 31.4457 727.134 29.487 728.253 27.8082C729.373 26.1294 730.94 24.8423 732.954 23.947C734.969 23.0516 737.3 22.6039 739.949 22.6039C743.717 22.6039 746.795 23.5553 749.183 25.4579C751.608 27.3232 752.951 29.8974 753.212 33.1804H746.161C746.049 31.7628 745.377 30.5503 744.146 29.543C742.915 28.5357 741.292 28.0321 739.278 28.0321C737.45 28.0321 735.957 28.4984 734.801 29.4311C733.644 30.3638 733.066 31.7068 733.066 33.4602C733.066 34.6541 733.42 35.6427 734.129 36.4261C734.875 37.1723 735.808 37.7692 736.927 38.2169C738.046 38.6645 739.576 39.1495 741.516 39.6718C744.09 40.3807 746.179 41.0895 747.784 41.7983C749.425 42.5072 750.805 43.6077 751.925 45.1C753.081 46.5549 753.659 48.5136 753.659 50.9758C753.659 52.9531 753.118 54.8184 752.037 56.5718C750.992 58.3253 749.444 59.7429 747.392 60.8248C745.377 61.8694 742.99 62.3917 740.229 62.3917ZM788.384 34.6914C788.384 36.6686 787.917 38.534 786.985 40.2874C786.052 42.0408 784.56 43.4771 782.508 44.5963C780.456 45.6782 777.826 46.2192 774.617 46.2192H767.566V62H761.187V23.1076H774.617C777.602 23.1076 780.12 23.6299 782.172 24.6745C784.261 25.6817 785.81 27.0621 786.817 28.8155C787.861 30.5689 788.384 32.5276 788.384 34.6914ZM774.617 41.0149C777.042 41.0149 778.852 40.4739 780.046 39.392C781.239 38.2728 781.836 36.7059 781.836 34.6914C781.836 30.4384 779.43 28.3119 774.617 28.3119H767.566V41.0149H774.617ZM800.792 23.1076V47.898C800.792 50.8452 801.556 53.065 803.086 54.5573C804.653 56.0496 806.817 56.7957 809.577 56.7957C812.375 56.7957 814.539 56.0496 816.069 54.5573C817.636 53.065 818.419 50.8452 818.419 47.898V23.1076H824.799V47.7861C824.799 50.9572 824.108 53.6433 822.728 55.8444C821.348 58.0455 819.501 59.687 817.188 60.7689C814.875 61.8508 812.319 62.3917 809.521 62.3917C806.723 62.3917 804.168 61.8508 801.855 60.7689C799.579 59.687 797.77 58.0455 796.427 55.8444C795.084 53.6433 794.412 50.9572 794.412 47.7861V23.1076H800.792ZM853.922 42.0222C856.011 42.3952 857.783 43.4958 859.238 45.3238C860.693 47.1519 861.421 49.2224 861.421 51.5354C861.421 53.5127 860.898 55.3034 859.854 56.9076C858.846 58.4745 857.373 59.7243 855.433 60.657C853.493 61.5523 851.236 62 848.662 62H833.105V23.1076H847.934C850.583 23.1076 852.859 23.5553 854.761 24.4506C856.664 25.346 858.1 26.5585 859.07 28.088C860.04 29.5803 860.525 31.2591 860.525 33.1245C860.525 35.3629 859.928 37.2282 858.735 38.7205C857.541 40.2128 855.937 41.3133 853.922 42.0222ZM839.484 39.448H847.375C849.464 39.448 851.087 38.9817 852.243 38.049C853.437 37.079 854.034 35.6986 854.034 33.9079C854.034 32.1545 853.437 30.7928 852.243 29.8228C851.087 28.8155 849.464 28.3119 847.375 28.3119H839.484V39.448ZM848.102 56.7957C850.266 56.7957 851.963 56.2734 853.194 55.2288C854.426 54.1842 855.041 52.7292 855.041 50.8639C855.041 48.9612 854.388 47.4503 853.083 46.3311C851.777 45.2119 850.042 44.6523 847.878 44.6523H839.484V56.7957H848.102ZM874.733 56.8516H887.883V62H868.353V23.1076H874.733V56.8516ZM899.598 23.1076V62H893.218V23.1076H899.598ZM929.406 62L914.353 44.5963V62H907.974V23.1076H914.353V40.847L929.462 23.1076H937.465L920.565 42.5818L937.744 62H929.406ZM966.833 54.0536H950.549L947.751 62H941.092L955.026 23.0516H962.412L976.347 62H969.631L966.833 54.0536ZM965.043 48.8493L958.719 30.7741L952.34 48.8493H965.043ZM995.22 62.3917C992.609 62.3917 990.258 61.944 988.169 61.0487C986.08 60.116 984.438 58.8103 983.245 57.1315C982.051 55.4526 981.454 53.494 981.454 51.2556H988.281C988.43 52.9344 989.083 54.3148 990.24 55.3967C991.433 56.4786 993.094 57.0195 995.22 57.0195C997.421 57.0195 999.137 56.4972 1000.37 55.4526C1001.6 54.3707 1002.22 52.9904 1002.22 51.3116C1002.22 50.0058 1001.82 48.9426 1001.04 48.1218C1000.29 47.3011 999.342 46.6669 998.186 46.2192C997.067 45.7715 995.5 45.2865 993.485 44.7642C990.948 44.0927 988.878 43.4212 987.274 42.7496C985.707 42.0408 984.364 40.9589 983.245 39.5039C982.125 38.049 981.566 36.109 981.566 33.6841C981.566 31.4457 982.125 29.487 983.245 27.8082C984.364 26.1294 985.931 24.8423 987.945 23.947C989.96 23.0516 992.291 22.6039 994.94 22.6039C998.708 22.6039 1001.79 23.5553 1004.17 25.4579C1006.6 27.3232 1007.94 29.8974 1008.2 33.1804H1001.15C1001.04 31.7628 1000.37 30.5503 999.137 29.543C997.906 28.5357 996.283 28.0321 994.269 28.0321C992.441 28.0321 990.948 28.4984 989.792 29.4311C988.635 30.3638 988.057 31.7068 988.057 33.4602C988.057 34.6541 988.412 35.6427 989.12 36.4261C989.867 37.1723 990.799 37.7692 991.918 38.2169C993.038 38.6645 994.567 39.1495 996.507 39.6718C999.081 40.3807 1001.17 41.0895 1002.77 41.7983C1004.42 42.5072 1005.8 43.6077 1006.92 45.1C1008.07 46.5549 1008.65 48.5136 1008.65 50.9758C1008.65 52.9531 1008.11 54.8184 1007.03 56.5718C1005.98 58.3253 1004.43 59.7429 1002.38 60.8248C1000.37 61.8694 997.981 62.3917 995.22 62.3917ZM1022.56 23.1076V62H1016.18V23.1076H1022.56ZM320.323 107.108V112.312H309.971V146H303.591V112.312H293.182V107.108H320.323ZM346.986 146L338.032 130.443H333.163V146H326.784V107.108H340.214C343.199 107.108 345.717 107.63 347.769 108.674C349.858 109.719 351.407 111.118 352.414 112.871C353.458 114.625 353.981 116.584 353.981 118.747C353.981 121.284 353.235 123.597 351.742 125.686C350.287 127.738 348.03 129.137 344.971 129.883L354.596 146H346.986ZM333.163 125.351H340.214C342.602 125.351 344.393 124.754 345.587 123.56C346.818 122.366 347.433 120.762 347.433 118.747C347.433 116.733 346.836 115.166 345.643 114.047C344.449 112.89 342.639 112.312 340.214 112.312H333.163V125.351ZM385.589 138.054H369.305L366.507 146H359.847L373.781 107.052H381.168L395.102 146H388.387L385.589 138.054ZM383.798 132.849L377.475 114.774L371.095 132.849H383.798ZM433.114 146H426.735L407.54 116.957V146H401.161V107.052H407.54L426.735 136.039V107.052H433.114V146ZM454.307 146.392C451.695 146.392 449.345 145.944 447.256 145.049C445.166 144.116 443.525 142.81 442.331 141.131C441.137 139.453 440.54 137.494 440.54 135.256H447.368C447.517 136.934 448.17 138.315 449.326 139.397C450.52 140.479 452.18 141.02 454.307 141.02C456.508 141.02 458.224 140.497 459.455 139.453C460.686 138.371 461.302 136.99 461.302 135.312C461.302 134.006 460.91 132.943 460.127 132.122C459.38 131.301 458.429 130.667 457.273 130.219C456.153 129.772 454.586 129.287 452.572 128.764C450.035 128.093 447.964 127.421 446.36 126.75C444.793 126.041 443.45 124.959 442.331 123.504C441.212 122.049 440.652 120.109 440.652 117.684C440.652 115.446 441.212 113.487 442.331 111.808C443.45 110.129 445.017 108.842 447.032 107.947C449.046 107.052 451.378 106.604 454.027 106.604C457.795 106.604 460.873 107.555 463.26 109.458C465.685 111.323 467.028 113.897 467.289 117.18H460.238C460.127 115.763 459.455 114.55 458.224 113.543C456.993 112.536 455.37 112.032 453.355 112.032C451.527 112.032 450.035 112.498 448.879 113.431C447.722 114.364 447.144 115.707 447.144 117.46C447.144 118.654 447.498 119.643 448.207 120.426C448.953 121.172 449.886 121.769 451.005 122.217C452.124 122.665 453.654 123.15 455.594 123.672C458.168 124.381 460.257 125.089 461.861 125.798C463.503 126.507 464.883 127.608 466.002 129.1C467.159 130.555 467.737 132.514 467.737 134.976C467.737 136.953 467.196 138.818 466.114 140.572C465.07 142.325 463.521 143.743 461.47 144.825C459.455 145.869 457.067 146.392 454.307 146.392ZM502.461 118.691C502.461 120.669 501.995 122.534 501.062 124.287C500.13 126.041 498.637 127.477 496.586 128.596C494.534 129.678 491.904 130.219 488.695 130.219H481.644V146H475.265V107.108H488.695C491.68 107.108 494.198 107.63 496.25 108.674C498.339 109.682 499.887 111.062 500.895 112.816C501.939 114.569 502.461 116.528 502.461 118.691ZM488.695 125.015C491.12 125.015 492.929 124.474 494.123 123.392C495.317 122.273 495.914 120.706 495.914 118.691C495.914 114.438 493.508 112.312 488.695 112.312H481.644V125.015H488.695ZM526.285 146.392C522.666 146.392 519.327 145.552 516.268 143.874C513.246 142.157 510.84 139.788 509.049 136.767C507.296 133.707 506.419 130.275 506.419 126.47C506.419 122.665 507.296 119.251 509.049 116.229C510.84 113.207 513.246 110.857 516.268 109.178C519.327 107.462 522.666 106.604 526.285 106.604C529.941 106.604 533.28 107.462 536.302 109.178C539.361 110.857 541.768 113.207 543.521 116.229C545.274 119.251 546.151 122.665 546.151 126.47C546.151 130.275 545.274 133.707 543.521 136.767C541.768 139.788 539.361 142.157 536.302 143.874C533.28 145.552 529.941 146.392 526.285 146.392ZM526.285 140.852C528.859 140.852 531.154 140.273 533.168 139.117C535.183 137.923 536.75 136.244 537.869 134.08C539.025 131.879 539.604 129.342 539.604 126.47C539.604 123.597 539.025 121.079 537.869 118.915C536.75 116.751 535.183 115.091 533.168 113.935C531.154 112.778 528.859 112.2 526.285 112.2C523.711 112.2 521.417 112.778 519.402 113.935C517.387 115.091 515.802 116.751 514.645 118.915C513.526 121.079 512.967 123.597 512.967 126.47C512.967 129.342 513.526 131.879 514.645 134.08C515.802 136.244 517.387 137.923 519.402 139.117C521.417 140.273 523.711 140.852 526.285 140.852ZM572.63 146L563.677 130.443H558.808V146H552.429V107.108H565.859C568.844 107.108 571.362 107.63 573.414 108.674C575.503 109.719 577.051 111.118 578.059 112.871C579.103 114.625 579.625 116.584 579.625 118.747C579.625 121.284 578.879 123.597 577.387 125.686C575.932 127.738 573.675 129.137 570.616 129.883L580.241 146H572.63ZM558.808 125.351H565.859C568.247 125.351 570.038 124.754 571.231 123.56C572.463 122.366 573.078 120.762 573.078 118.747C573.078 116.733 572.481 115.166 571.287 114.047C570.094 112.89 568.284 112.312 565.859 112.312H558.808V125.351ZM612.913 107.108V112.312H602.56V146H596.181V112.312H585.772V107.108H612.913ZM667.43 107.108L652.825 146H645.438L630.776 107.108H637.603L649.131 139.453L660.715 107.108H667.43ZM696.213 138.054H679.928L677.13 146H670.471L684.405 107.052H691.792L705.726 146H699.011L696.213 138.054ZM694.422 132.849L688.098 114.774L681.719 132.849H694.422ZM717.94 140.46H736.015V146H710.385V141.02L728.405 112.648H710.385V107.108H736.015V112.088L717.94 140.46ZM749.368 107.108V146H742.989V107.108H749.368ZM777.946 146L768.992 130.443H764.124V146H757.744V107.108H771.175C774.159 107.108 776.677 107.63 778.729 108.674C780.818 109.719 782.367 111.118 783.374 112.871C784.419 114.625 784.941 116.584 784.941 118.747C784.941 121.284 784.195 123.597 782.702 125.686C781.247 127.738 778.99 129.137 775.931 129.883L785.556 146H777.946ZM764.124 125.351H771.175C773.562 125.351 775.353 124.754 776.547 123.56C777.778 122.366 778.393 120.762 778.393 118.747C778.393 116.733 777.797 115.166 776.603 114.047C775.409 112.89 773.6 112.312 771.175 112.312H764.124V125.351ZM799.481 140.852H812.632V146H793.102V107.108H799.481V140.852ZM824.347 107.108V146H817.967V107.108H824.347ZM860.87 118.3C859.863 116.36 858.464 114.905 856.673 113.935C854.882 112.927 852.812 112.424 850.462 112.424C847.887 112.424 845.593 113.002 843.578 114.159C841.564 115.315 839.978 116.957 838.822 119.083C837.703 121.21 837.143 123.672 837.143 126.47C837.143 129.268 837.703 131.749 838.822 133.913C839.978 136.039 841.564 137.681 843.578 138.837C845.593 139.994 847.887 140.572 850.462 140.572C853.931 140.572 856.748 139.602 858.912 137.662C861.075 135.722 862.4 133.092 862.885 129.772H848.279V124.679H869.712V129.66C869.302 132.681 868.22 135.461 866.466 137.998C864.75 140.535 862.493 142.568 859.695 144.097C856.934 145.59 853.857 146.336 850.462 146.336C846.806 146.336 843.467 145.496 840.445 143.818C837.423 142.101 835.017 139.732 833.226 136.711C831.472 133.689 830.596 130.275 830.596 126.47C830.596 122.665 831.472 119.251 833.226 116.229C835.017 113.207 837.423 110.857 840.445 109.178C843.504 107.462 846.843 106.604 850.462 106.604C854.603 106.604 858.277 107.63 861.486 109.682C864.731 111.696 867.082 114.569 868.537 118.3H860.87ZM882.384 107.108V146H876.004V107.108H882.384Z" fill="#254DAF"/>
<defs>
<clipPath id="clip0_894_49551">
<rect width="261" height="177" fill="white"/>
</clipPath>
</defs>
</svg>
